<?xml version="1.0" encoding="utf-8"?>
<!-- Generator: Adobe Illustrator 19.0.1, SVG Export Plug-In . SVG Version: 6.00 Build 0)  -->
<svg version="1.1" id="Layer_1" xmlns="http://www.w3.org/2000/svg" xmlns:xlink="http://www.w3.org/1999/xlink" x="0px" y="0px"
	 viewBox="-188 384.4 233.7 24.6" style="enable-background:new -188 384.4 233.7 24.6;" xml:space="preserve">
<style type="text/css">
	.st0{fill:#FFFFFF;}
	.st1{fill:#FFDF05;}
</style>
<g>
	<g>
		<path class="st0" d="M-155.3,386.5c1.2,0,1.4,0.8,1.4,1.2c0,0.4-0.2,1.2-1.4,1.2h-5.3v16.2c0,1.3-0.9,1.6-1.4,1.6
			s-1.4-0.3-1.4-1.6V389h-5.3c-1.2,0-1.4-0.8-1.4-1.2s0.2-1.2,1.4-1.2h13.4V386.5z"/>
		<path class="st0" d="M-152.5,400.6c0.1,2.3,2,4.1,4.3,4.1c1.6,0,2.6-0.7,3.4-1.4c0.4-0.3,0.6-0.4,0.9-0.4c0.6,0,1.1,0.4,1.1,1.1
			c0,0.2-0.1,0.6-0.4,1c-1.3,1.3-3,2-5.1,2c-4.1,0-7.1-2.8-7.1-7s3-7.1,6.9-7.1c3.4,0,5.8,1.9,6.4,5.6c0.1,0.4,0.1,0.6,0.1,0.9
			c0,0.9-0.5,1.4-1.4,1.4h-9.1V400.6z M-144.5,398.7c-0.1-2.1-1.3-3.8-3.8-3.8c-2.3,0-4,1.7-4.2,3.8H-144.5z"/>
		<path class="st0" d="M-129.8,404.6L-129.8,404.6c-1,1.4-2.6,2.3-4.6,2.3c-2.1,0-4.9-1-4.9-4.1c0-4,4.8-4.5,9.3-4.5v-0.4
			c0-2-1.3-2.9-3.3-2.9c-1.1,0-2.1,0.4-3.2,1c-0.3,0.2-0.6,0.3-0.8,0.3c-0.6,0-1-0.5-1-1c0-0.4,0.1-0.7,0.6-1
			c1.2-0.8,2.8-1.4,4.6-1.4c3.9,0,5.6,2.3,5.6,5.3v7.2c0,1.2-0.8,1.4-1.2,1.4c-0.4,0-1.2-0.2-1.2-1.4v-0.8H-129.8z M-130.6,400.2
			c-2.6,0-6,0.3-6,2.5c0,1.6,1.4,2.1,2.7,2.1c2.5,0,3.9-1.7,3.9-3.9v-0.7H-130.6z"/>
		<path class="st0" d="M-113.2,403.4c0.7,0,1.1,0.5,1.1,1.1c0,0.4-0.1,0.7-0.6,1.2c-1,0.9-2.5,1.3-4,1.3c-4.1,0-7.1-2.8-7.1-7.1
			c0-4.2,3-7.1,7.1-7.1c1.4,0,2.9,0.4,3.9,1.2c0.5,0.4,0.7,0.8,0.7,1.2c0,0.7-0.5,1.2-1.2,1.2c-0.3,0-0.5-0.1-1-0.5
			s-1.3-0.8-2.3-0.8c-2.8,0-4.4,2.3-4.4,4.8s1.6,4.8,4.3,4.8c1.1,0,1.9-0.3,2.6-0.9C-113.7,403.5-113.5,403.4-113.2,403.4z"/>
		<path class="st0" d="M-99.7,399.1c0-2.2-0.6-4.1-3-4.1c-2.1,0-3.6,1.8-3.6,4.4v5.8c0,1.2-0.9,1.5-1.3,1.5s-1.4-0.2-1.4-1.4v-18.9
			c0-1.2,0.9-1.5,1.3-1.5s1.3,0.2,1.3,1.5v8.8h0.1c0.6-1.3,2.3-2.4,4.2-2.4c3.4,0,5,2.5,5,5.4v7.1c0,1.2-0.9,1.5-1.3,1.5
			s-1.3-0.2-1.3-1.5C-99.7,405.3-99.7,399.1-99.7,399.1z"/>
		<path class="st0" d="M-73.1,406.8c-0.5,0-1.4-0.2-1.4-1.6v-13h-0.1l-5.8,13.3c-0.5,1.1-1.2,1.3-1.7,1.3s-1.2-0.2-1.7-1.3
			l-5.8-13.2h-0.1v13c0,1.3-0.9,1.5-1.4,1.5s-1.4-0.2-1.4-1.5v-17c0-1.6,1.2-1.9,1.8-1.9c0.6,0,1.3,0.2,1.9,1.6l6.6,15.2h0.1
			l6.6-15.2c0.6-1.4,1.4-1.6,1.9-1.6c0.6,0,1.7,0.3,1.7,1.9v17C-71.8,406.5-72.7,406.8-73.1,406.8z"/>
		<path class="st0" d="M-65.2,400.6c0.1,2.3,2,4.1,4.3,4.1c1.6,0,2.6-0.7,3.4-1.4c0.4-0.3,0.6-0.4,0.9-0.4c0.6,0,1.1,0.4,1.1,1.1
			c0,0.2-0.1,0.6-0.4,1c-1.3,1.3-3,2-5.1,2c-4.1,0-7.1-2.8-7.1-7s3-7.1,6.9-7.1c3.4,0,5.8,1.9,6.4,5.6c0.1,0.4,0.1,0.6,0.1,0.9
			c0,0.9-0.5,1.4-1.4,1.4h-9.1V400.6z M-57.3,398.7c-0.1-2.1-1.3-3.8-3.8-3.8c-2.3,0-4,1.7-4.2,3.8H-57.3z"/>
		<path class="st0" d="M-45.5,404.6c1.9,0,4-1,4-3.4c0-2.4-2.2-3.1-4.7-3.9c-2.5-0.8-5.2-1.9-5.2-5.6c0-4,3.6-5.7,6.8-5.7
			c1.9,0,3.6,0.6,4.7,1.5c0.5,0.4,0.6,0.8,0.6,1.1c0,0.7-0.5,1.2-1.3,1.2c-0.3,0-0.5,0-1-0.4c-1-0.8-2-1.1-3.1-1.1
			c-1.8,0-3.9,1-3.9,3.2c0,2.2,1.8,2.8,4.1,3.5c2.7,0.8,5.9,1.9,5.9,5.8c0,4.1-3.4,6.1-6.9,6.1c-2.1,0-4.1-0.6-5.5-1.9
			c-0.5-0.4-0.6-0.9-0.6-1.2c0-0.7,0.5-1.3,1.3-1.3c0.3,0,0.6,0.1,1,0.5C-48.1,404.1-46.8,404.6-45.5,404.6z"/>
		<path class="st0" d="M-32,399.6L-32,399.6l-0.1,5.7c0,1.2-0.9,1.5-1.3,1.5c-0.4,0-1.3-0.2-1.3-1.5v-18.9c0-1.2,0.9-1.5,1.3-1.5
			c0.5,0,1.3,0.2,1.3,1.5v12.5h0.1l6-5.6c0.4-0.3,0.7-0.5,1-0.5c0.7,0,1.3,0.5,1.3,1.2c0,0.3-0.1,0.7-0.6,1.1l-4.6,4l5.3,5.1
			c0.5,0.5,0.5,0.8,0.5,1.1c0,0.7-0.6,1.3-1.3,1.3c-0.4,0-0.7-0.1-1.2-0.6L-32,399.6z"/>
		<path class="st0" d="M-18.6,390c-1,0-1.8-0.8-1.8-1.7c0-1,0.8-1.7,1.8-1.7s1.8,0.7,1.8,1.7S-17.6,390-18.6,390z M-17.2,405.3
			c0,1.2-0.9,1.5-1.3,1.5c-0.5,0-1.3-0.2-1.3-1.5v-10.9c0-1.2,0.9-1.5,1.3-1.5c0.5,0,1.3,0.2,1.3,1.5V405.3z"/>
		<path class="st0" d="M-12.6,386.4c0-1.2,0.9-1.5,1.3-1.5c0.5,0,1.3,0.2,1.3,1.5v18.9c0,1.2-0.9,1.5-1.3,1.5
			c-0.5,0-1.3-0.2-1.3-1.5V386.4z"/>
		<path class="st0" d="M-5.2,386.4c0-1.2,0.9-1.5,1.3-1.5c0.5,0,1.3,0.2,1.3,1.5v18.9c0,1.2-0.9,1.5-1.3,1.5c-0.5,0-1.3-0.2-1.3-1.5
			V386.4z"/>
		<path class="st0" d="M6.2,394.9c-1.2,0-2.5,0.5-2.5,1.8c0,1.1,1,1.6,3,2c2.5,0.6,4.5,1.6,4.5,4c0,3.2-2.6,4.3-5.3,4.3
			c-1.6,0-3.3-0.5-4.4-1.5c-0.5-0.4-0.6-0.8-0.6-1.1c0-0.7,0.5-1.2,1.2-1.2c0.3,0,0.6,0.1,1,0.4c0.8,0.7,1.8,1.2,2.9,1.2
			c1.3,0,2.7-0.5,2.7-1.9c0-1.2-1.2-1.7-3.5-2.2c-1.8-0.4-3.9-1.2-3.9-3.7c0-2.9,2.5-4.1,5.1-4.1c1.4,0,2.9,0.4,3.9,1.3
			c0.5,0.4,0.6,0.8,0.6,1.1c0,0.6-0.5,1.2-1.2,1.2c-0.3,0-0.5-0.1-0.8-0.4C8,395.2,7.1,394.9,6.2,394.9z"/>
	</g>
</g>
<g>
	<path class="st1" d="M34.4,407.3c-0.3,0-0.7-0.1-0.9-0.4c-0.5-0.5-0.5-1.3,0-1.8l7.2-7.2l-7.2-7.2c-0.5-0.5-0.5-1.3,0-1.8
		s1.3-0.5,1.8,0l8.1,8.1c0.2,0.2,0.4,0.6,0.4,0.9s-0.1,0.7-0.4,0.9l-8.1,8.1C35.1,407.1,34.7,407.3,34.4,407.3z"/>
</g>
<g>
	<path class="st1" d="M-176.3,407.3c-0.3,0-0.7-0.1-0.9-0.4l-8.1-8.1c-0.2-0.2-0.4-0.6-0.4-0.9s0.1-0.7,0.4-0.9l8.1-8.1
		c0.5-0.5,1.3-0.5,1.8,0s0.5,1.3,0,1.8l-7.2,7.2l7.2,7.2c0.5,0.5,0.5,1.3,0,1.8C-175.6,407.1-176,407.3-176.3,407.3z"/>
</g>
<g>
	<path class="st1" d="M16.9,407.3c-0.3,0-0.5-0.1-0.7-0.2c-0.6-0.4-0.7-1.2-0.3-1.8l11.4-16.2c0.4-0.6,1.2-0.7,1.8-0.3
		s0.7,1.2,0.3,1.8L18,406.8C17.7,407.1,17.3,407.3,16.9,407.3z"/>
</g>
</svg>
